# xmcd
#
# Track frame offsets:
#	150
#	16078
#	34225
#	55935
#	73631
#	91011
#	107311
#	130330
#	145870
#	167262
#	182761
#	201754
#
# Disc length: 2847 seconds
#
# Revision: 1
# Processed by: cddbd v1.5.2PL0 Copyright (c) Steve Scherf et al.
# Submitted via: audiograbber 1.83.01
#
DISCID=940b1d0c
DTITLE=Hank Becker - LIVE at the Kudzu Kafe
DYEAR=2007
DGENRE=Blues
TTITLE0=Bull Bream Blues
TTITLE1=When You Said I Do
TTITLE2=Self-Portrait Of The Blues
TTITLE3=Private Hell
TTITLE4=(I Been Hit By) Everything But Good Luck
TTITLE5=She Gets Crazy On a Full Moon
TTITLE6=Hot Sauce [back porch version]
TTITLE7=Brighter Days
TTITLE8=Standing Around In The Rain
TTITLE9=Alabama Is The Heart Of Dixie
TTITLE10=A Rainy Night In Georgia
TTITLE11=Freight Train Boogie
EXTD=all songs copyright Hank Becker except \n"A Rainy Night In Georgia" copyri
EXTD=ght Tony Joe White, and\n"Freight Train Boogie" traditional 
EXTT0=
EXTT1=
EXTT2=
EXTT3=
EXTT4=
EXTT5=
EXTT6=
EXTT7=
EXTT8=
EXTT9=
EXTT10=
EXTT11=
PLAYORDER=
